<?xml version="1.0" standalone="no"?>
<!DOCTYPE svg PUBLIC "-//W3C//DTD SVG 20010904//EN"
 "http://www.w3.org/TR/2001/REC-SVG-20010904/DTD/svg10.dtd">
<svg version="1.0" xmlns="http://www.w3.org/2000/svg"
 width="481.000000pt" height="481.000000pt" viewBox="0 0 481.000000 481.000000"
 preserveAspectRatio="xMidYMid meet">
<metadata>
Created by potrace 1.11, written by Peter Selinger 2001-2013
</metadata>
<g transform="translate(0.000000,481.000000) scale(0.100000,-0.100000)"
fill="#000000" stroke="none">
<path d="M2175 4150 c-189 -16 -370 -68 -563 -160 -222 -106 -419 -248 -618
-445 -319 -317 -557 -699 -689 -1105 -70 -218 -96 -370 -96 -575 1 -491 222
-879 605 -1061 137 -65 231 -85 421 -91 182 -6 275 7 435 59 152 49 332 147
499 272 l74 55 54 -79 c188 -274 474 -403 824 -370 561 52 1150 483 1440 1054
30 58 51 107 49 109 -3 3 -70 37 -149 76 l-143 72 -107 -108 c-156 -159 -338
-276 -501 -320 -49 -14 -102 -18 -220 -18 -134 0 -163 3 -212 22 -170 64 -257
195 -294 444 -13 90 -15 158 -11 324 6 241 25 369 88 589 32 112 37 142 27
151 -18 16 -280 177 -282 173 -1 -2 -31 -37 -67 -78 -327 -375 -551 -856 -624
-1342 -5 -34 -13 -42 -73 -77 -137 -80 -256 -119 -388 -128 -298 -20 -429 121
-465 502 -13 144 -6 259 26 420 91 452 339 856 614 999 85 43 155 59 261 59
105 0 177 -23 312 -99 129 -73 206 -93 289 -75 72 14 120 42 171 99 64 71 73
96 73 207 0 88 -3 107 -27 158 -94 200 -392 317 -733 287z"/>
</g>
</svg>
